<svg width="22" height="21" viewBox="0 0 22 21" fill="none" xmlns="http://www.w3.org/2000/svg">
<path d="M11.4167 0C10.0488 0 8.69425 0.269435 7.43044 0.792922C6.16664 1.31641 5.01831 2.08369 4.05103 3.05097C2.09753 5.00447 1.00006 7.65399 1.00006 10.4167C0.990958 12.822 1.82381 15.1547 3.35423 17.0104L1.2709 19.0937C1.12636 19.2402 1.02845 19.4262 0.989514 19.6283C0.950583 19.8304 0.972377 20.0395 1.05215 20.2292C1.13867 20.4166 1.27892 20.5741 1.45511 20.6817C1.6313 20.7892 1.83548 20.842 2.04173 20.8333H11.4167C14.1794 20.8333 16.8289 19.7359 18.7824 17.7824C20.7359 15.8289 21.8334 13.1793 21.8334 10.4167C21.8334 7.65399 20.7359 5.00447 18.7824 3.05097C16.8289 1.09747 14.1794 0 11.4167 0ZM11.4167 18.75H4.55215L5.5209 17.7812C5.71491 17.5861 5.82381 17.3221 5.82381 17.0469C5.82381 16.7717 5.71491 16.5077 5.5209 16.3125C4.15692 14.95 3.30754 13.1568 3.11745 11.2383C2.92736 9.31984 3.40834 7.3948 4.47843 5.79117C5.54851 4.18754 7.14151 3.00454 8.98602 2.44372C10.8305 1.8829 12.8124 1.97896 14.594 2.71553C16.3757 3.45211 17.8468 4.78362 18.7568 6.48322C19.6668 8.18282 19.9593 10.1454 19.5846 12.0365C19.2098 13.9276 18.191 15.6303 16.7017 16.8544C15.2123 18.0786 13.3446 18.7485 11.4167 18.75Z" fill="white"/>
</svg>
