<svg width="23" height="21" viewBox="0 0 23 21" fill="none" xmlns="http://www.w3.org/2000/svg">
<path d="M5.34341 16.1458L13.737 12.5L17.654 4.6875L9.26042 8.33333L5.34341 16.1458ZM11.4987 11.4583C11.1816 11.4583 10.916 11.3583 10.7019 11.1583C10.487 10.959 10.3796 10.7118 10.3796 10.4167C10.3796 10.1215 10.487 9.87396 10.7019 9.67396C10.916 9.47465 11.1816 9.375 11.4987 9.375C11.8158 9.375 12.0818 9.47465 12.2967 9.67396C12.5108 9.87396 12.6179 10.1215 12.6179 10.4167C12.6179 10.7118 12.5108 10.959 12.2967 11.1583C12.0818 11.3583 11.8158 11.4583 11.4987 11.4583ZM11.4987 20.8333C9.95056 20.8333 8.49567 20.5597 7.13404 20.0125C5.77241 19.466 4.58798 18.724 3.58075 17.7865C2.57352 16.849 1.77632 15.7465 1.18914 14.4792C0.601213 13.2118 0.307251 11.8576 0.307251 10.4167C0.307251 8.97569 0.601213 7.62153 1.18914 6.35417C1.77632 5.08681 2.57352 3.98438 3.58075 3.04688C4.58798 2.10938 5.77241 1.36701 7.13404 0.819792C8.49567 0.273264 9.95056 0 11.4987 0C13.0469 0 14.5018 0.273264 15.8634 0.819792C17.225 1.36701 18.4094 2.10938 19.4167 3.04688C20.4239 3.98438 21.2211 5.08681 21.8083 6.35417C22.3962 7.62153 22.6902 8.97569 22.6902 10.4167C22.6902 11.8576 22.3962 13.2118 21.8083 14.4792C21.2211 15.7465 20.4239 16.849 19.4167 17.7865C18.4094 18.724 17.225 19.466 15.8634 20.0125C14.5018 20.5597 13.0469 20.8333 11.4987 20.8333Z" fill="white"/>
</svg>
