<svg width="21" height="20" viewBox="0 0 21 20" fill="none" xmlns="http://www.w3.org/2000/svg">
<path d="M10.5208 16.2397L10.4167 16.3438L10.3021 16.2397C5.35417 11.7501 2.08333 8.78133 2.08333 5.77091C2.08333 3.68758 3.64583 2.12508 5.72917 2.12508C7.33333 2.12508 8.89583 3.16675 9.44792 4.58341H11.3854C11.9375 3.16675 13.5 2.12508 15.1042 2.12508C17.1875 2.12508 18.75 3.68758 18.75 5.77091C18.75 8.78133 15.4792 11.7501 10.5208 16.2397ZM15.1042 0.041748C13.2917 0.041748 11.5521 0.885498 10.4167 2.20841C9.28125 0.885498 7.54167 0.041748 5.72917 0.041748C2.52083 0.041748 0 2.55216 0 5.77091C0 9.698 3.54167 12.9167 8.90625 17.7813L10.4167 19.1563L11.9271 17.7813C17.2917 12.9167 20.8333 9.698 20.8333 5.77091C20.8333 2.55216 18.3125 0.041748 15.1042 0.041748Z" fill="white"/>
</svg>
