<svg width="21" height="19" viewBox="0 0 21 19" fill="none" xmlns="http://www.w3.org/2000/svg">
<path d="M18.576 18.0625L12.3088 12.2291C11.7492 12.6458 11.1057 12.9757 10.3783 13.2187C9.65085 13.4618 8.87677 13.5833 8.05607 13.5833C6.02295 13.5833 4.30245 12.9281 2.89456 11.6177C1.48593 10.3066 0.781616 8.70482 0.781616 6.81246C0.781616 4.9201 1.48593 3.31836 2.89456 2.00725C4.30245 0.696834 6.02295 0.041626 8.05607 0.041626C10.0892 0.041626 11.8101 0.696834 13.2187 2.00725C14.6266 3.31836 15.3305 4.9201 15.3305 6.81246C15.3305 7.57635 15.1999 8.29683 14.9388 8.97392C14.6777 9.651 14.3233 10.25 13.8756 10.7708L20.1708 16.6302C20.376 16.8211 20.4786 17.0555 20.4786 17.3333C20.4786 17.6111 20.3667 17.8541 20.1428 18.0625C19.9377 18.2534 19.6765 18.3489 19.3594 18.3489C19.0423 18.3489 18.7812 18.2534 18.576 18.0625ZM8.05607 11.5C9.455 11.5 10.6443 11.0444 11.6239 10.1333C12.6028 9.22149 13.0922 8.11454 13.0922 6.81246C13.0922 5.51038 12.6028 4.40343 11.6239 3.49163C10.6443 2.58051 9.455 2.12496 8.05607 2.12496C6.65713 2.12496 5.46785 2.58051 4.48823 3.49163C3.50935 4.40343 3.01991 5.51038 3.01991 6.81246C3.01991 8.11454 3.50935 9.22149 4.48823 10.1333C5.46785 11.0444 6.65713 11.5 8.05607 11.5Z" fill="white"/>
</svg>
