<svg width="19" height="19" viewBox="0 0 19 19" fill="none" xmlns="http://www.w3.org/2000/svg">
<path d="M18.5651 0.268298C18.4597 0.163356 18.3265 0.0906971 18.1811 0.058866C18.0358 0.0270348 17.8844 0.0373542 17.7448 0.0886109L0.557282 6.33861C0.409054 6.39483 0.281438 6.49482 0.191384 6.62529C0.101331 6.75576 0.0531006 6.91055 0.0531006 7.06908C0.0531006 7.22761 0.101331 7.38239 0.191384 7.51286C0.281438 7.64334 0.409054 7.74332 0.557282 7.79955L7.26822 10.4792L12.2213 5.51049L13.3229 6.61205L8.34635 11.5886L11.0338 18.2995C11.0917 18.4449 11.1919 18.5695 11.3215 18.6573C11.451 18.7451 11.6039 18.7919 11.7604 18.7917C11.9183 18.7885 12.0715 18.7375 12.1998 18.6454C12.3281 18.5534 12.4255 18.4246 12.4792 18.2761L18.7292 1.08861C18.7824 0.950389 18.7952 0.799884 18.7662 0.654645C18.7371 0.509405 18.6674 0.375416 18.5651 0.268298Z" fill="white"/>
</svg>
