<svg width="24" height="17" viewBox="0 0 24 17" fill="none" xmlns="http://www.w3.org/2000/svg">
<path d="M3.1902 0.083252L5.42849 4.24992H8.78593L6.54763 0.083252H8.78593L11.0242 4.24992H14.3817L12.1434 0.083252H14.3817L16.6199 4.24992H19.9774L17.7391 0.083252H21.0965C21.7121 0.083252 22.2392 0.287418 22.6779 0.695752C23.1158 1.10339 23.3348 1.59367 23.3348 2.16659V14.6666C23.3348 15.2395 23.1158 15.7301 22.6779 16.1385C22.2392 16.5461 21.7121 16.7499 21.0965 16.7499H3.1902C2.57467 16.7499 2.04792 16.5461 1.60996 16.1385C1.17126 15.7301 0.951904 15.2395 0.951904 14.6666V2.16659C0.951904 1.59367 1.17126 1.10339 1.60996 0.695752C2.04792 0.287418 2.57467 0.083252 3.1902 0.083252Z" fill="white"/>
</svg>
